<?xml version="1.0" encoding="utf-8"?>
<svg xmlns="http://www.w3.org/2000/svg" xmlns:xlink="http://www.w3.org/1999/xlink" width="600" height="400" viewBox="0 0 2400 1600">
<defs>
  <clipPath id="clip2700">
    <rect x="0" y="0" width="2400" height="1600"/>
  </clipPath>
</defs>
<path clip-path="url(#clip2700)" d="
M0 1600 L2400 1600 L2400 0 L0 0  Z
  " fill="#ffffff" fill-rule="evenodd" fill-opacity="1"/>
<defs>
  <clipPath id="clip2701">
    <rect x="480" y="0" width="1681" height="1600"/>
  </clipPath>
</defs>
<path clip-path="url(#clip2700)" d="
M153.898 1487.47 L2352.76 1487.47 L2352.76 47.2441 L153.898 47.2441  Z
  " fill="#ffffff" fill-rule="evenodd" fill-opacity="1"/>
<defs>
  <clipPath id="clip2702">
    <rect x="153" y="47" width="2200" height="1441"/>
  </clipPath>
</defs>
<polyline clip-path="url(#clip2702)" style="stroke:#000000; stroke-width:2; stroke-opacity:0.1; fill:none" points="
  388.45,1487.47 388.45,47.2441 
  "/>
<polyline clip-path="url(#clip2702)" style="stroke:#000000; stroke-width:2; stroke-opacity:0.1; fill:none" points="
  841.839,1487.47 841.839,47.2441 
  "/>
<polyline clip-path="url(#clip2702)" style="stroke:#000000; stroke-width:2; stroke-opacity:0.1; fill:none" points="
  1295.23,1487.47 1295.23,47.2441 
  "/>
<polyline clip-path="url(#clip2702)" style="stroke:#000000; stroke-width:2; stroke-opacity:0.1; fill:none" points="
  1748.62,1487.47 1748.62,47.2441 
  "/>
<polyline clip-path="url(#clip2702)" style="stroke:#000000; stroke-width:2; stroke-opacity:0.1; fill:none" points="
  2202.01,1487.47 2202.01,47.2441 
  "/>
<polyline clip-path="url(#clip2702)" style="stroke:#000000; stroke-width:2; stroke-opacity:0.1; fill:none" points="
  153.898,1446.74 2352.76,1446.74 
  "/>
<polyline clip-path="url(#clip2702)" style="stroke:#000000; stroke-width:2; stroke-opacity:0.1; fill:none" points="
  153.898,1075.79 2352.76,1075.79 
  "/>
<polyline clip-path="url(#clip2702)" style="stroke:#000000; stroke-width:2; stroke-opacity:0.1; fill:none" points="
  153.898,704.839 2352.76,704.839 
  "/>
<polyline clip-path="url(#clip2702)" style="stroke:#000000; stroke-width:2; stroke-opacity:0.1; fill:none" points="
  153.898,333.889 2352.76,333.889 
  "/>
<polyline clip-path="url(#clip2700)" style="stroke:#000000; stroke-width:4; stroke-opacity:1; fill:none" points="
  153.898,1487.47 2352.76,1487.47 
  "/>
<polyline clip-path="url(#clip2700)" style="stroke:#000000; stroke-width:4; stroke-opacity:1; fill:none" points="
  153.898,1487.47 153.898,47.2441 
  "/>
<polyline clip-path="url(#clip2700)" style="stroke:#000000; stroke-width:4; stroke-opacity:1; fill:none" points="
  388.45,1487.47 388.45,1470.19 
  "/>
<polyline clip-path="url(#clip2700)" style="stroke:#000000; stroke-width:4; stroke-opacity:1; fill:none" points="
  841.839,1487.47 841.839,1470.19 
  "/>
<polyline clip-path="url(#clip2700)" style="stroke:#000000; stroke-width:4; stroke-opacity:1; fill:none" points="
  1295.23,1487.47 1295.23,1470.19 
  "/>
<polyline clip-path="url(#clip2700)" style="stroke:#000000; stroke-width:4; stroke-opacity:1; fill:none" points="
  1748.62,1487.47 1748.62,1470.19 
  "/>
<polyline clip-path="url(#clip2700)" style="stroke:#000000; stroke-width:4; stroke-opacity:1; fill:none" points="
  2202.01,1487.47 2202.01,1470.19 
  "/>
<polyline clip-path="url(#clip2700)" style="stroke:#000000; stroke-width:4; stroke-opacity:1; fill:none" points="
  153.898,1446.74 180.284,1446.74 
  "/>
<polyline clip-path="url(#clip2700)" style="stroke:#000000; stroke-width:4; stroke-opacity:1; fill:none" points="
  153.898,1075.79 180.284,1075.79 
  "/>
<polyline clip-path="url(#clip2700)" style="stroke:#000000; stroke-width:4; stroke-opacity:1; fill:none" points="
  153.898,704.839 180.284,704.839 
  "/>
<polyline clip-path="url(#clip2700)" style="stroke:#000000; stroke-width:4; stroke-opacity:1; fill:none" points="
  153.898,333.889 180.284,333.889 
  "/>
<g clip-path="url(#clip2700)">
<text style="fill:#000000; fill-opacity:1; font-family:Arial,Helvetica Neue,Helvetica,sans-serif; font-size:48px; text-anchor:middle;" transform="rotate(0, 388.45, 1541.47)" x="388.45" y="1541.47">-4</text>
</g>
<g clip-path="url(#clip2700)">
<text style="fill:#000000; fill-opacity:1; font-family:Arial,Helvetica Neue,Helvetica,sans-serif; font-size:48px; text-anchor:middle;" transform="rotate(0, 841.839, 1541.47)" x="841.839" y="1541.47">-2</text>
</g>
<g clip-path="url(#clip2700)">
<text style="fill:#000000; fill-opacity:1; font-family:Arial,Helvetica Neue,Helvetica,sans-serif; font-size:48px; text-anchor:middle;" transform="rotate(0, 1295.23, 1541.47)" x="1295.23" y="1541.47">0</text>
</g>
<g clip-path="url(#clip2700)">
<text style="fill:#000000; fill-opacity:1; font-family:Arial,Helvetica Neue,Helvetica,sans-serif; font-size:48px; text-anchor:middle;" transform="rotate(0, 1748.62, 1541.47)" x="1748.62" y="1541.47">2</text>
</g>
<g clip-path="url(#clip2700)">
<text style="fill:#000000; fill-opacity:1; font-family:Arial,Helvetica Neue,Helvetica,sans-serif; font-size:48px; text-anchor:middle;" transform="rotate(0, 2202.01, 1541.47)" x="2202.01" y="1541.47">4</text>
</g>
<g clip-path="url(#clip2700)">
<text style="fill:#000000; fill-opacity:1; font-family:Arial,Helvetica Neue,Helvetica,sans-serif; font-size:48px; text-anchor:end;" transform="rotate(0, 129.898, 1464.24)" x="129.898" y="1464.24">0.0</text>
</g>
<g clip-path="url(#clip2700)">
<text style="fill:#000000; fill-opacity:1; font-family:Arial,Helvetica Neue,Helvetica,sans-serif; font-size:48px; text-anchor:end;" transform="rotate(0, 129.898, 1093.29)" x="129.898" y="1093.29">0.1</text>
</g>
<g clip-path="url(#clip2700)">
<text style="fill:#000000; fill-opacity:1; font-family:Arial,Helvetica Neue,Helvetica,sans-serif; font-size:48px; text-anchor:end;" transform="rotate(0, 129.898, 722.339)" x="129.898" y="722.339">0.2</text>
</g>
<g clip-path="url(#clip2700)">
<text style="fill:#000000; fill-opacity:1; font-family:Arial,Helvetica Neue,Helvetica,sans-serif; font-size:48px; text-anchor:end;" transform="rotate(0, 129.898, 351.389)" x="129.898" y="351.389">0.3</text>
</g>
<polyline clip-path="url(#clip2702)" style="stroke:#009af9; stroke-width:4; stroke-opacity:1; fill:none" points="
  216.13,1446.71 226.554,1446.71 236.978,1446.7 247.402,1446.68 257.826,1446.65 268.25,1446.61 278.674,1446.54 289.098,1446.45 299.523,1446.32 309.947,1446.15 
  320.371,1445.9 330.795,1445.57 341.219,1445.12 351.643,1444.53 362.067,1443.76 372.491,1442.76 382.915,1441.51 393.339,1439.93 403.763,1437.99 414.188,1435.64 
  424.612,1432.81 435.036,1429.48 445.46,1425.6 455.884,1421.15 466.308,1416.15 476.732,1410.59 487.156,1404.54 497.58,1398.05 508.004,1391.24 518.428,1384.21 
  528.853,1377.14 539.277,1370.18 549.701,1363.51 560.125,1357.31 570.549,1351.78 580.973,1347.06 591.397,1343.3 601.821,1340.59 612.245,1339 622.669,1338.54 
  633.093,1339.15 643.518,1340.75 653.942,1343.18 664.366,1346.26 674.79,1349.76 685.214,1353.43 695.638,1357.01 706.062,1360.22 716.486,1362.81 726.91,1364.54 
  737.334,1365.21 747.758,1364.64 758.183,1362.71 768.607,1359.33 779.031,1354.46 789.455,1348.07 799.879,1340.2 810.303,1330.88 820.727,1320.13 831.151,1308 
  841.575,1294.49 851.999,1279.6 862.423,1263.26 872.848,1245.39 883.272,1225.85 893.696,1204.45 904.12,1181.01 914.544,1155.28 924.968,1127.05 935.392,1096.13 
  945.816,1062.34 956.24,1025.6 966.664,985.892 977.089,943.297 987.513,898.001 997.937,850.296 1008.36,800.575 1018.78,749.316 1029.21,697.066 1039.63,644.418 
  1050.06,591.979 1060.48,540.345 1070.91,490.079 1081.33,441.686 1091.75,395.599 1102.18,352.173 1112.6,311.682 1123.03,274.325 1133.45,240.241 1143.87,209.516 
  1154.3,182.202 1164.72,158.331 1175.15,137.922 1185.57,120.988 1195.99,107.538 1206.42,97.5726 1216.84,91.0748 1227.27,88.0053 1237.69,88.292 1248.11,91.8233 
  1258.54,98.4454 1268.96,107.963 1279.39,120.143 1289.81,134.724 1300.24,151.428 1310.66,169.966 1321.08,190.058 1331.51,211.434 1341.93,233.844 1352.36,257.06 
  1362.78,280.875 1373.2,305.102 1383.63,329.571 1394.05,354.123 1404.48,378.609 1414.9,402.887 1425.32,426.828 1435.75,450.315 1446.17,473.251 1456.6,495.566 
  1467.02,517.222 1477.44,538.219 1487.87,558.599 1498.29,578.448 1508.72,597.889 1519.14,617.083 1529.57,636.216 1539.99,655.491 1550.41,675.114 1560.84,695.283 
  1571.26,716.174 1581.69,737.931 1592.11,760.654 1602.53,784.394 1612.96,809.145 1623.38,834.845 1633.81,861.375 1644.23,888.562 1654.65,916.189 1665.08,944.003 
  1675.5,971.724 1685.93,999.062 1696.35,1025.73 1706.77,1051.45 1717.2,1075.98 1727.62,1099.12 1738.05,1120.71 1748.47,1140.65 1758.9,1158.91 1769.32,1175.5 
  1779.74,1190.49 1790.17,1204.01 1800.59,1216.22 1811.02,1227.31 1821.44,1237.49 1831.86,1246.98 1842.29,1255.97 1852.71,1264.67 1863.14,1273.24 1873.56,1281.81 
  1883.98,1290.49 1894.41,1299.34 1904.83,1308.39 1915.26,1317.62 1925.68,1327.02 1936.1,1336.5 1946.53,1345.99 1956.95,1355.4 1967.38,1364.62 1977.8,1373.55 
  1988.23,1382.11 1998.65,1390.19 2009.07,1397.74 2019.5,1404.71 2029.92,1411.04 2040.35,1416.74 2050.77,1421.79 2061.19,1426.21 2071.62,1430.03 2082.04,1433.29 
  2092.47,1436.03 2102.89,1438.31 2113.31,1440.18 2123.74,1441.69 2134.16,1442.9 2144.59,1443.86 2155.01,1444.6 2165.43,1445.17 2175.86,1445.6 2186.28,1445.92 
  2196.71,1446.16 2207.13,1446.33 2217.56,1446.46 2227.98,1446.55 2238.4,1446.61 2248.83,1446.65 2259.25,1446.68 2269.68,1446.7 2280.1,1446.71 2290.52,1446.71 
  
  "/>
<path clip-path="url(#clip2700)" d="
M1989.93 251.724 L2280.76 251.724 L2280.76 130.764 L1989.93 130.764  Z
  " fill="#ffffff" fill-rule="evenodd" fill-opacity="1"/>
<polyline clip-path="url(#clip2700)" style="stroke:#000000; stroke-width:4; stroke-opacity:1; fill:none" points="
  1989.93,251.724 2280.76,251.724 2280.76,130.764 1989.93,130.764 1989.93,251.724 
  "/>
<polyline clip-path="url(#clip2700)" style="stroke:#009af9; stroke-width:4; stroke-opacity:1; fill:none" points="
  2013.93,191.244 2157.93,191.244 
  "/>
<g clip-path="url(#clip2700)">
<text style="fill:#000000; fill-opacity:1; font-family:Arial,Helvetica Neue,Helvetica,sans-serif; font-size:48px; text-anchor:start;" transform="rotate(0, 2181.93, 208.744)" x="2181.93" y="208.744">y1</text>
</g>
</svg>
